<svg xmlns="http://www.w3.org/2000/svg" viewBox="0 0 484.31 442.5"><defs><style>.cls-1{fill:#000001;}.cls-1,.cls-2{fill-rule:evenodd;}.cls-2{fill:#7b7b7b;}</style></defs><title>Logo</title><g id="main"><polygon class="cls-1" points="484.31 217.18 437.3 217.18 437.3 27.15 484.31 0 484.31 217.18"/><polygon class="cls-2" points="204.1 44.79 204.1 71.94 157.08 71.94 204.1 44.79"/><polygon class="cls-2" points="110.06 99.09 110.06 126.24 63.03 126.24 110.06 99.09"/><polygon class="cls-1" points="281.68 0 390.27 0 390.27 271.48 359.71 271.48 359.71 17.65 281.68 17.65 281.68 0"/><polygon class="cls-1" points="16.01 153.38 124.61 153.38 124.61 424.86 94.04 424.86 94.04 171.03 16.01 171.03 16.01 153.38"/><polygon class="cls-1" points="312.69 261.98 265.67 289.12 265.67 71.94 157.08 71.94 204.1 44.8 312.69 44.8 312.69 261.98"/><polygon class="cls-1" points="218.65 316.27 171.63 343.42 171.63 126.24 63.04 126.24 110.06 99.09 218.65 99.09 218.65 316.27"/><polygon class="cls-1" points="47.02 415.36 0 442.5 0 279.62 47.02 252.47 47.02 415.36"/><polygon class="cls-2" points="47.02 415.36 0 442.5 0 415.36 47.02 415.36"/><polygon class="cls-2" points="218.65 316.27 171.63 343.42 171.63 316.27 218.65 316.27"/><polygon class="cls-2" points="312.69 261.98 265.67 289.12 265.67 261.98 312.69 261.98"/><polygon class="cls-2" points="204.1 44.79 204.1 71.94 157.08 71.94 204.1 44.79"/><polygon class="cls-2" points="110.06 99.09 110.06 126.24 63.03 126.24 110.06 99.09"/></g><g id="Icon"><polygon class="cls-1" points="484.31 217.18 437.3 217.18 437.3 27.15 484.31 0 484.31 217.18"/><polygon class="cls-2" points="204.1 44.79 204.1 71.94 157.08 71.94 204.1 44.79"/><polygon class="cls-2" points="110.06 99.09 110.06 126.24 63.03 126.24 110.06 99.09"/><polygon class="cls-1" points="281.68 0 390.27 0 390.27 271.48 359.71 271.48 359.71 17.65 281.68 17.65 281.68 0"/><polygon class="cls-1" points="16.01 153.38 124.61 153.38 124.61 424.86 94.04 424.86 94.04 171.03 16.01 171.03 16.01 153.38"/><polygon class="cls-1" points="312.69 261.98 265.67 289.12 265.67 71.94 157.08 71.94 204.1 44.8 312.69 44.8 312.69 261.98"/><polygon class="cls-1" points="218.65 316.27 171.63 343.42 171.63 126.24 63.04 126.24 110.06 99.09 218.65 99.09 218.65 316.27"/><polygon class="cls-1" points="47.02 415.36 0 442.5 0 279.62 47.02 252.47 47.02 415.36"/><polygon class="cls-2" points="47.02 415.36 0 442.5 0 415.36 47.02 415.36"/><polygon class="cls-2" points="218.65 316.27 171.63 343.42 171.63 316.27 218.65 316.27"/><polygon class="cls-2" points="312.69 261.98 265.67 289.12 265.67 261.98 312.69 261.98"/><polygon class="cls-2" points="204.1 44.79 204.1 71.94 157.08 71.94 204.1 44.79"/><polygon class="cls-2" points="110.06 99.09 110.06 126.24 63.03 126.24 110.06 99.09"/></g></svg>